<?xml version="1.0" encoding="utf-8" standalone="no"?>
<!DOCTYPE svg PUBLIC "-//W3C//DTD SVG 1.1//EN"
  "http://www.w3.org/Graphics/SVG/1.1/DTD/svg11.dtd">
<!-- Created with matplotlib (https://matplotlib.org/) -->
<svg height="345.6pt" version="1.1" viewBox="0 0 460.8 345.6" width="460.8pt" xmlns="http://www.w3.org/2000/svg" xmlns:xlink="http://www.w3.org/1999/xlink">
 <metadata>
  <rdf:RDF xmlns:cc="http://creativecommons.org/ns#" xmlns:dc="http://purl.org/dc/elements/1.1/" xmlns:rdf="http://www.w3.org/1999/02/22-rdf-syntax-ns#">
   <cc:Work>
    <dc:type rdf:resource="http://purl.org/dc/dcmitype/StillImage"/>
    <dc:date>2023-04-24T06:49:17.165224</dc:date>
    <dc:format>image/svg+xml</dc:format>
    <dc:creator>
     <cc:Agent>
      <dc:title>Matplotlib v3.3.1, https://matplotlib.org/</dc:title>
     </cc:Agent>
    </dc:creator>
   </cc:Work>
  </rdf:RDF>
 </metadata>
 <defs>
  <style type="text/css">*{stroke-linecap:butt;stroke-linejoin:round;}</style>
 </defs>
 <g id="figure_1">
  <g id="patch_1">
   <path d="M 0 345.6 
L 460.8 345.6 
L 460.8 0 
L 0 0 
z
" style="fill:#ffffff;"/>
  </g>
  <g id="axes_1">
   <g id="patch_2">
    <path d="M 57.6 307.584 
L 414.72 307.584 
L 414.72 41.472 
L 57.6 41.472 
z
" style="fill:#ffffff;"/>
   </g>
   <g id="matplotlib.axis_1">
    <g id="xtick_1">
     <g id="line2d_1">
      <defs>
       <path d="M 0 0 
L 0 3.5 
" id="mbbb3c3dde3" style="stroke:#000000;stroke-width:0.8;"/>
      </defs>
      <g>
       <use style="stroke:#000000;stroke-width:0.8;" x="73.832727" xlink:href="#mbbb3c3dde3" y="307.584"/>
      </g>
     </g>
     <g id="text_1">
      <!-- 0.0 -->
      <g transform="translate(65.881165 322.182437)scale(0.1 -0.1)">
       <defs>
        <path d="M 31.78125 3.421875 
Q 39.265625 3.421875 42.96875 11.625 
Q 46.6875 19.828125 46.6875 36.375 
Q 46.6875 52.984375 42.96875 61.1875 
Q 39.265625 69.390625 31.78125 69.390625 
Q 24.3125 69.390625 20.59375 61.1875 
Q 16.890625 52.984375 16.890625 36.375 
Q 16.890625 19.828125 20.59375 11.625 
Q 24.3125 3.421875 31.78125 3.421875 
z
M 31.78125 -1.421875 
Q 19.921875 -1.421875 13.25 8.53125 
Q 6.59375 18.5 6.59375 36.375 
Q 6.59375 54.296875 13.25 64.25 
Q 19.921875 74.21875 31.78125 74.21875 
Q 43.703125 74.21875 50.34375 64.25 
Q 56.984375 54.296875 56.984375 36.375 
Q 56.984375 18.5 50.34375 8.53125 
Q 43.703125 -1.421875 31.78125 -1.421875 
z
" id="DejaVuSerif-48"/>
        <path d="M 9.421875 5.078125 
Q 9.421875 7.8125 11.28125 9.71875 
Q 13.140625 11.625 15.921875 11.625 
Q 18.609375 11.625 20.5 9.71875 
Q 22.40625 7.8125 22.40625 5.078125 
Q 22.40625 2.390625 20.5 0.484375 
Q 18.609375 -1.421875 15.921875 -1.421875 
Q 13.140625 -1.421875 11.28125 0.453125 
Q 9.421875 2.34375 9.421875 5.078125 
z
" id="DejaVuSerif-46"/>
       </defs>
       <use xlink:href="#DejaVuSerif-48"/>
       <use x="63.623047" xlink:href="#DejaVuSerif-46"/>
       <use x="95.410156" xlink:href="#DejaVuSerif-48"/>
      </g>
     </g>
    </g>
    <g id="xtick_2">
     <g id="line2d_2">
      <g>
       <use style="stroke:#000000;stroke-width:0.8;" x="138.763636" xlink:href="#mbbb3c3dde3" y="307.584"/>
      </g>
     </g>
     <g id="text_2">
      <!-- 0.2 -->
      <g transform="translate(130.812074 322.182437)scale(0.1 -0.1)">
       <defs>
        <path d="M 12.796875 55.515625 
L 7.328125 55.515625 
L 7.328125 68.5 
Q 12.546875 71.296875 17.84375 72.75 
Q 23.140625 74.21875 28.21875 74.21875 
Q 39.59375 74.21875 46.1875 68.703125 
Q 52.78125 63.1875 52.78125 53.71875 
Q 52.78125 43.015625 37.84375 28.125 
Q 36.671875 27 36.078125 26.421875 
L 17.671875 8.015625 
L 48.09375 8.015625 
L 48.09375 17 
L 53.8125 17 
L 53.8125 0 
L 6.78125 0 
L 6.78125 5.328125 
L 28.90625 27.390625 
Q 36.234375 34.71875 39.359375 40.84375 
Q 42.484375 46.96875 42.484375 53.71875 
Q 42.484375 61.078125 38.640625 65.234375 
Q 34.8125 69.390625 28.078125 69.390625 
Q 21.09375 69.390625 17.28125 65.921875 
Q 13.484375 62.453125 12.796875 55.515625 
z
" id="DejaVuSerif-50"/>
       </defs>
       <use xlink:href="#DejaVuSerif-48"/>
       <use x="63.623047" xlink:href="#DejaVuSerif-46"/>
       <use x="95.410156" xlink:href="#DejaVuSerif-50"/>
      </g>
     </g>
    </g>
    <g id="xtick_3">
     <g id="line2d_3">
      <g>
       <use style="stroke:#000000;stroke-width:0.8;" x="203.694545" xlink:href="#mbbb3c3dde3" y="307.584"/>
      </g>
     </g>
     <g id="text_3">
      <!-- 0.4 -->
      <g transform="translate(195.742983 322.182437)scale(0.1 -0.1)">
       <defs>
        <path d="M 34.90625 24.703125 
L 34.90625 63.484375 
L 10.015625 24.703125 
z
M 56.390625 0 
L 23.1875 0 
L 23.1875 5.171875 
L 34.90625 5.171875 
L 34.90625 19.484375 
L 3.078125 19.484375 
L 3.078125 24.8125 
L 35.015625 74.21875 
L 44.671875 74.21875 
L 44.671875 24.703125 
L 58.59375 24.703125 
L 58.59375 19.484375 
L 44.671875 19.484375 
L 44.671875 5.171875 
L 56.390625 5.171875 
z
" id="DejaVuSerif-52"/>
       </defs>
       <use xlink:href="#DejaVuSerif-48"/>
       <use x="63.623047" xlink:href="#DejaVuSerif-46"/>
       <use x="95.410156" xlink:href="#DejaVuSerif-52"/>
      </g>
     </g>
    </g>
    <g id="xtick_4">
     <g id="line2d_4">
      <g>
       <use style="stroke:#000000;stroke-width:0.8;" x="268.625455" xlink:href="#mbbb3c3dde3" y="307.584"/>
      </g>
     </g>
     <g id="text_4">
      <!-- 0.6 -->
      <g transform="translate(260.673892 322.182437)scale(0.1 -0.1)">
       <defs>
        <path d="M 32.71875 3.421875 
Q 39.59375 3.421875 43.296875 8.46875 
Q 47.015625 13.53125 47.015625 23 
Q 47.015625 32.46875 43.296875 37.515625 
Q 39.59375 42.578125 32.71875 42.578125 
Q 25.734375 42.578125 22.0625 37.6875 
Q 18.40625 32.8125 18.40625 23.578125 
Q 18.40625 13.875 22.109375 8.640625 
Q 25.828125 3.421875 32.71875 3.421875 
z
M 16.796875 40.140625 
Q 20.125 43.796875 24.3125 45.59375 
Q 28.515625 47.40625 33.796875 47.40625 
Q 44.671875 47.40625 51 40.859375 
Q 57.328125 34.328125 57.328125 23 
Q 57.328125 11.921875 50.515625 5.25 
Q 43.703125 -1.421875 32.328125 -1.421875 
Q 19.96875 -1.421875 13.328125 7.78125 
Q 6.6875 17 6.6875 34.078125 
Q 6.6875 53.21875 14.546875 63.71875 
Q 22.40625 74.21875 36.71875 74.21875 
Q 40.578125 74.21875 44.828125 73.484375 
Q 49.078125 72.75 53.515625 71.296875 
L 53.515625 59.28125 
L 48 59.28125 
Q 47.40625 64.203125 44.234375 66.796875 
Q 41.0625 69.390625 35.6875 69.390625 
Q 26.21875 69.390625 21.578125 62.203125 
Q 16.9375 55.03125 16.796875 40.140625 
z
" id="DejaVuSerif-54"/>
       </defs>
       <use xlink:href="#DejaVuSerif-48"/>
       <use x="63.623047" xlink:href="#DejaVuSerif-46"/>
       <use x="95.410156" xlink:href="#DejaVuSerif-54"/>
      </g>
     </g>
    </g>
    <g id="xtick_5">
     <g id="line2d_5">
      <g>
       <use style="stroke:#000000;stroke-width:0.8;" x="333.556364" xlink:href="#mbbb3c3dde3" y="307.584"/>
      </g>
     </g>
     <g id="text_5">
      <!-- 0.8 -->
      <g transform="translate(325.604801 322.182437)scale(0.1 -0.1)">
       <defs>
        <path d="M 46.578125 19.921875 
Q 46.578125 27.734375 42.6875 32.046875 
Q 38.8125 36.375 31.78125 36.375 
Q 24.75 36.375 20.875 32.046875 
Q 17 27.734375 17 19.921875 
Q 17 12.0625 20.875 7.734375 
Q 24.75 3.421875 31.78125 3.421875 
Q 38.8125 3.421875 42.6875 7.734375 
Q 46.578125 12.0625 46.578125 19.921875 
z
M 44.578125 55.328125 
Q 44.578125 61.96875 41.203125 65.671875 
Q 37.84375 69.390625 31.78125 69.390625 
Q 25.78125 69.390625 22.390625 65.671875 
Q 19 61.96875 19 55.328125 
Q 19 48.640625 22.390625 44.921875 
Q 25.78125 41.21875 31.78125 41.21875 
Q 37.84375 41.21875 41.203125 44.921875 
Q 44.578125 48.640625 44.578125 55.328125 
z
M 39.3125 38.8125 
Q 47.609375 37.703125 52.25 32.6875 
Q 56.890625 27.6875 56.890625 19.921875 
Q 56.890625 9.671875 50.390625 4.125 
Q 43.890625 -1.421875 31.78125 -1.421875 
Q 19.734375 -1.421875 13.203125 4.125 
Q 6.6875 9.671875 6.6875 19.921875 
Q 6.6875 27.6875 11.328125 32.6875 
Q 15.96875 37.703125 24.3125 38.8125 
Q 16.9375 40.140625 13 44.40625 
Q 9.078125 48.6875 9.078125 55.328125 
Q 9.078125 64.109375 15.125 69.15625 
Q 21.1875 74.21875 31.78125 74.21875 
Q 42.390625 74.21875 48.4375 69.15625 
Q 54.5 64.109375 54.5 55.328125 
Q 54.5 48.6875 50.5625 44.40625 
Q 46.625 40.140625 39.3125 38.8125 
z
" id="DejaVuSerif-56"/>
       </defs>
       <use xlink:href="#DejaVuSerif-48"/>
       <use x="63.623047" xlink:href="#DejaVuSerif-46"/>
       <use x="95.410156" xlink:href="#DejaVuSerif-56"/>
      </g>
     </g>
    </g>
    <g id="xtick_6">
     <g id="line2d_6">
      <g>
       <use style="stroke:#000000;stroke-width:0.8;" x="398.487273" xlink:href="#mbbb3c3dde3" y="307.584"/>
      </g>
     </g>
     <g id="text_6">
      <!-- 1.0 -->
      <g transform="translate(390.53571 322.182437)scale(0.1 -0.1)">
       <defs>
        <path d="M 14.203125 0 
L 14.203125 5.171875 
L 26.90625 5.171875 
L 26.90625 65.828125 
L 12.203125 56.296875 
L 12.203125 62.703125 
L 29.984375 74.21875 
L 36.71875 74.21875 
L 36.71875 5.171875 
L 49.421875 5.171875 
L 49.421875 0 
z
" id="DejaVuSerif-49"/>
       </defs>
       <use xlink:href="#DejaVuSerif-49"/>
       <use x="63.623047" xlink:href="#DejaVuSerif-46"/>
       <use x="95.410156" xlink:href="#DejaVuSerif-48"/>
      </g>
     </g>
    </g>
    <g id="text_7">
     <!-- False Positive Rate -->
     <g transform="translate(168.995 339.899937)scale(0.14 -0.14)">
      <defs>
       <path d="M 5.515625 0 
L 5.515625 5.171875 
L 14.796875 5.171875 
L 14.796875 67.671875 
L 5.515625 67.671875 
L 5.515625 72.90625 
L 65.1875 72.90625 
L 65.1875 56.6875 
L 59.1875 56.6875 
L 59.1875 66.890625 
L 24.703125 66.890625 
L 24.703125 42.484375 
L 49.609375 42.484375 
L 49.609375 51.609375 
L 55.609375 51.609375 
L 55.609375 27.390625 
L 49.609375 27.390625 
L 49.609375 36.53125 
L 24.703125 36.53125 
L 24.703125 5.171875 
L 36.375 5.171875 
L 36.375 0 
z
" id="DejaVuSerif-70"/>
       <path d="M 39.796875 16.3125 
L 39.796875 27.296875 
L 28.21875 27.296875 
Q 21.53125 27.296875 18.25 24.40625 
Q 14.984375 21.53125 14.984375 15.578125 
Q 14.984375 10.15625 18.296875 6.984375 
Q 21.625 3.8125 27.296875 3.8125 
Q 32.90625 3.8125 36.34375 7.28125 
Q 39.796875 10.75 39.796875 16.3125 
z
M 48.78125 32.421875 
L 48.78125 5.171875 
L 56.78125 5.171875 
L 56.78125 0 
L 39.796875 0 
L 39.796875 5.609375 
Q 36.8125 2 32.90625 0.28125 
Q 29 -1.421875 23.78125 -1.421875 
Q 15.140625 -1.421875 10.0625 3.171875 
Q 4.984375 7.765625 4.984375 15.578125 
Q 4.984375 23.640625 10.796875 28.078125 
Q 16.609375 32.515625 27.203125 32.515625 
L 39.796875 32.515625 
L 39.796875 36.078125 
Q 39.796875 42 36.203125 45.234375 
Q 32.625 48.484375 26.125 48.484375 
Q 20.75 48.484375 17.578125 46.046875 
Q 14.40625 43.609375 13.625 38.8125 
L 8.984375 38.8125 
L 8.984375 49.3125 
Q 13.671875 51.3125 18.09375 52.3125 
Q 22.515625 53.328125 26.703125 53.328125 
Q 37.5 53.328125 43.140625 47.96875 
Q 48.78125 42.625 48.78125 32.421875 
z
" id="DejaVuSerif-97"/>
       <path d="M 20.515625 5.171875 
L 29 5.171875 
L 29 0 
L 2.875 0 
L 2.875 5.171875 
L 11.53125 5.171875 
L 11.53125 70.796875 
L 2.875 70.796875 
L 2.875 75.984375 
L 20.515625 75.984375 
z
" id="DejaVuSerif-108"/>
       <path d="M 5.609375 2.875 
L 5.609375 14.984375 
L 10.796875 14.984375 
Q 10.984375 9.1875 14.421875 6.296875 
Q 17.875 3.421875 24.609375 3.421875 
Q 30.671875 3.421875 33.84375 5.6875 
Q 37.015625 7.953125 37.015625 12.3125 
Q 37.015625 15.71875 34.6875 17.8125 
Q 32.375 19.921875 24.90625 22.3125 
L 18.40625 24.515625 
Q 11.71875 26.65625 8.71875 29.875 
Q 5.71875 33.109375 5.71875 38.09375 
Q 5.71875 45.21875 10.9375 49.265625 
Q 16.15625 53.328125 25.390625 53.328125 
Q 29.5 53.328125 34.03125 52.25 
Q 38.578125 51.171875 43.40625 49.125 
L 43.40625 37.796875 
L 38.234375 37.796875 
Q 38.03125 42.828125 34.703125 45.65625 
Q 31.390625 48.484375 25.6875 48.484375 
Q 20.015625 48.484375 17.109375 46.484375 
Q 14.203125 44.484375 14.203125 40.484375 
Q 14.203125 37.203125 16.40625 35.21875 
Q 18.609375 33.25 25.203125 31.203125 
L 32.328125 29 
Q 39.703125 26.703125 42.9375 23.265625 
Q 46.1875 19.828125 46.1875 14.40625 
Q 46.1875 7.03125 40.546875 2.796875 
Q 34.90625 -1.421875 25 -1.421875 
Q 19.96875 -1.421875 15.1875 -0.34375 
Q 10.40625 0.734375 5.609375 2.875 
z
" id="DejaVuSerif-115"/>
       <path d="M 54.203125 25 
L 15.484375 25 
L 15.484375 24.609375 
Q 15.484375 14.109375 19.4375 8.765625 
Q 23.390625 3.421875 31.109375 3.421875 
Q 37.015625 3.421875 40.796875 6.515625 
Q 44.578125 9.625 46.09375 15.71875 
L 53.328125 15.71875 
Q 51.171875 7.171875 45.375 2.875 
Q 39.59375 -1.421875 30.171875 -1.421875 
Q 18.796875 -1.421875 11.890625 6.078125 
Q 4.984375 13.578125 4.984375 25.984375 
Q 4.984375 38.28125 11.765625 45.796875 
Q 18.5625 53.328125 29.59375 53.328125 
Q 41.359375 53.328125 47.65625 46.0625 
Q 53.953125 38.8125 54.203125 25 
z
M 43.609375 30.171875 
Q 43.3125 39.265625 39.765625 43.875 
Q 36.234375 48.484375 29.59375 48.484375 
Q 23.390625 48.484375 19.828125 43.84375 
Q 16.265625 39.203125 15.484375 30.171875 
z
" id="DejaVuSerif-101"/>
       <path id="DejaVuSerif-32"/>
       <path d="M 24.703125 37.109375 
L 37.59375 37.109375 
Q 44.875 37.109375 48.671875 41.03125 
Q 52.484375 44.96875 52.484375 52.390625 
Q 52.484375 59.859375 48.671875 63.765625 
Q 44.875 67.671875 37.59375 67.671875 
L 24.703125 67.671875 
z
M 5.515625 0 
L 5.515625 5.171875 
L 14.796875 5.171875 
L 14.796875 67.671875 
L 5.515625 67.671875 
L 5.515625 72.90625 
L 39.984375 72.90625 
Q 50.921875 72.90625 57.3125 67.359375 
Q 63.71875 61.8125 63.71875 52.390625 
Q 63.71875 43.015625 57.3125 37.453125 
Q 50.921875 31.890625 39.984375 31.890625 
L 24.703125 31.890625 
L 24.703125 5.171875 
L 35.984375 5.171875 
L 35.984375 0 
z
" id="DejaVuSerif-80"/>
       <path d="M 30.078125 3.421875 
Q 37.3125 3.421875 40.984375 9.125 
Q 44.671875 14.84375 44.671875 25.984375 
Q 44.671875 37.109375 40.984375 42.796875 
Q 37.3125 48.484375 30.078125 48.484375 
Q 22.859375 48.484375 19.171875 42.796875 
Q 15.484375 37.109375 15.484375 25.984375 
Q 15.484375 14.84375 19.1875 9.125 
Q 22.90625 3.421875 30.078125 3.421875 
z
M 30.078125 -1.421875 
Q 18.75 -1.421875 11.859375 6.078125 
Q 4.984375 13.578125 4.984375 25.984375 
Q 4.984375 38.375 11.84375 45.84375 
Q 18.703125 53.328125 30.078125 53.328125 
Q 41.453125 53.328125 48.3125 45.84375 
Q 55.171875 38.375 55.171875 25.984375 
Q 55.171875 13.578125 48.3125 6.078125 
Q 41.453125 -1.421875 30.078125 -1.421875 
z
" id="DejaVuSerif-111"/>
       <path d="M 9.71875 68.015625 
Q 9.71875 70.265625 11.34375 71.921875 
Q 12.984375 73.578125 15.28125 73.578125 
Q 17.53125 73.578125 19.15625 71.921875 
Q 20.796875 70.265625 20.796875 68.015625 
Q 20.796875 65.71875 19.1875 64.109375 
Q 17.578125 62.5 15.28125 62.5 
Q 12.984375 62.5 11.34375 64.109375 
Q 9.71875 65.71875 9.71875 68.015625 
z
M 21.1875 5.171875 
L 29.6875 5.171875 
L 29.6875 0 
L 3.609375 0 
L 3.609375 5.171875 
L 12.203125 5.171875 
L 12.203125 46.6875 
L 3.609375 46.6875 
L 3.609375 51.90625 
L 21.1875 51.90625 
z
" id="DejaVuSerif-105"/>
       <path d="M 10.796875 46.6875 
L 2.875 46.6875 
L 2.875 51.90625 
L 10.796875 51.90625 
L 10.796875 68.015625 
L 19.828125 68.015625 
L 19.828125 51.90625 
L 36.71875 51.90625 
L 36.71875 46.6875 
L 19.828125 46.6875 
L 19.828125 13.71875 
Q 19.828125 7.125 21.09375 5.265625 
Q 22.359375 3.421875 25.78125 3.421875 
Q 29.296875 3.421875 30.90625 5.484375 
Q 32.515625 7.5625 32.625 12.203125 
L 39.40625 12.203125 
Q 39.015625 5.125 35.546875 1.84375 
Q 32.078125 -1.421875 25 -1.421875 
Q 17.234375 -1.421875 14.015625 2.015625 
Q 10.796875 5.46875 10.796875 13.71875 
z
" id="DejaVuSerif-116"/>
       <path d="M 24.703125 0 
L 5.609375 46.6875 
L -0.296875 46.6875 
L -0.296875 51.90625 
L 23.578125 51.90625 
L 23.578125 46.6875 
L 15.28125 46.6875 
L 29.890625 10.984375 
L 44.484375 46.6875 
L 36.71875 46.6875 
L 36.71875 51.90625 
L 56.203125 51.90625 
L 56.203125 46.6875 
L 50.390625 46.6875 
L 31.296875 0 
z
" id="DejaVuSerif-118"/>
       <path d="M 47.90625 36.1875 
Q 51.3125 35.25 53.78125 33.03125 
Q 56.25 30.8125 58.203125 26.8125 
L 68.796875 5.171875 
L 77.6875 5.171875 
L 77.6875 0 
L 60.5 0 
L 49.125 23.1875 
Q 45.84375 29.9375 43.109375 31.90625 
Q 40.375 33.890625 35.59375 33.890625 
L 24.703125 33.890625 
L 24.703125 5.171875 
L 35.015625 5.171875 
L 35.015625 0 
L 5.515625 0 
L 5.515625 5.171875 
L 14.796875 5.171875 
L 14.796875 67.671875 
L 5.515625 67.671875 
L 5.515625 72.90625 
L 42.484375 72.90625 
Q 53.125 72.90625 58.90625 67.828125 
Q 64.703125 62.75 64.703125 53.421875 
Q 64.703125 45.90625 60.46875 41.578125 
Q 56.25 37.25 47.90625 36.1875 
z
M 24.703125 39.109375 
L 39.109375 39.109375 
Q 46.484375 39.109375 50 42.59375 
Q 53.515625 46.09375 53.515625 53.421875 
Q 53.515625 60.75 50 64.203125 
Q 46.484375 67.671875 39.109375 67.671875 
L 24.703125 67.671875 
z
" id="DejaVuSerif-82"/>
      </defs>
      <use xlink:href="#DejaVuSerif-70"/>
      <use x="62.634766" xlink:href="#DejaVuSerif-97"/>
      <use x="122.253906" xlink:href="#DejaVuSerif-108"/>
      <use x="154.236328" xlink:href="#DejaVuSerif-115"/>
      <use x="205.554688" xlink:href="#DejaVuSerif-101"/>
      <use x="264.734375" xlink:href="#DejaVuSerif-32"/>
      <use x="296.521484" xlink:href="#DejaVuSerif-80"/>
      <use x="359.806641" xlink:href="#DejaVuSerif-111"/>
      <use x="420.011719" xlink:href="#DejaVuSerif-115"/>
      <use x="471.330078" xlink:href="#DejaVuSerif-105"/>
      <use x="503.3125" xlink:href="#DejaVuSerif-116"/>
      <use x="543.498047" xlink:href="#DejaVuSerif-105"/>
      <use x="575.480469" xlink:href="#DejaVuSerif-118"/>
      <use x="631.974609" xlink:href="#DejaVuSerif-101"/>
      <use x="691.154297" xlink:href="#DejaVuSerif-32"/>
      <use x="722.941406" xlink:href="#DejaVuSerif-82"/>
      <use x="800.484375" xlink:href="#DejaVuSerif-97"/>
      <use x="860.103516" xlink:href="#DejaVuSerif-116"/>
      <use x="900.289062" xlink:href="#DejaVuSerif-101"/>
     </g>
    </g>
   </g>
   <g id="matplotlib.axis_2">
    <g id="ytick_1">
     <g id="line2d_7">
      <defs>
       <path d="M 0 0 
L -3.5 0 
" id="m51f60194a2" style="stroke:#000000;stroke-width:0.8;"/>
      </defs>
      <g>
       <use style="stroke:#000000;stroke-width:0.8;" x="57.6" xlink:href="#m51f60194a2" y="295.488"/>
      </g>
     </g>
     <g id="text_8">
      <!-- 0.0 -->
      <g transform="translate(34.696875 299.287219)scale(0.1 -0.1)">
       <use xlink:href="#DejaVuSerif-48"/>
       <use x="63.623047" xlink:href="#DejaVuSerif-46"/>
       <use x="95.410156" xlink:href="#DejaVuSerif-48"/>
      </g>
     </g>
    </g>
    <g id="ytick_2">
     <g id="line2d_8">
      <g>
       <use style="stroke:#000000;stroke-width:0.8;" x="57.6" xlink:href="#m51f60194a2" y="247.104"/>
      </g>
     </g>
     <g id="text_9">
      <!-- 0.2 -->
      <g transform="translate(34.696875 250.903219)scale(0.1 -0.1)">
       <use xlink:href="#DejaVuSerif-48"/>
       <use x="63.623047" xlink:href="#DejaVuSerif-46"/>
       <use x="95.410156" xlink:href="#DejaVuSerif-50"/>
      </g>
     </g>
    </g>
    <g id="ytick_3">
     <g id="line2d_9">
      <g>
       <use style="stroke:#000000;stroke-width:0.8;" x="57.6" xlink:href="#m51f60194a2" y="198.72"/>
      </g>
     </g>
     <g id="text_10">
      <!-- 0.4 -->
      <g transform="translate(34.696875 202.519219)scale(0.1 -0.1)">
       <use xlink:href="#DejaVuSerif-48"/>
       <use x="63.623047" xlink:href="#DejaVuSerif-46"/>
       <use x="95.410156" xlink:href="#DejaVuSerif-52"/>
      </g>
     </g>
    </g>
    <g id="ytick_4">
     <g id="line2d_10">
      <g>
       <use style="stroke:#000000;stroke-width:0.8;" x="57.6" xlink:href="#m51f60194a2" y="150.336"/>
      </g>
     </g>
     <g id="text_11">
      <!-- 0.6 -->
      <g transform="translate(34.696875 154.135219)scale(0.1 -0.1)">
       <use xlink:href="#DejaVuSerif-48"/>
       <use x="63.623047" xlink:href="#DejaVuSerif-46"/>
       <use x="95.410156" xlink:href="#DejaVuSerif-54"/>
      </g>
     </g>
    </g>
    <g id="ytick_5">
     <g id="line2d_11">
      <g>
       <use style="stroke:#000000;stroke-width:0.8;" x="57.6" xlink:href="#m51f60194a2" y="101.952"/>
      </g>
     </g>
     <g id="text_12">
      <!-- 0.8 -->
      <g transform="translate(34.696875 105.751219)scale(0.1 -0.1)">
       <use xlink:href="#DejaVuSerif-48"/>
       <use x="63.623047" xlink:href="#DejaVuSerif-46"/>
       <use x="95.410156" xlink:href="#DejaVuSerif-56"/>
      </g>
     </g>
    </g>
    <g id="ytick_6">
     <g id="line2d_12">
      <g>
       <use style="stroke:#000000;stroke-width:0.8;" x="57.6" xlink:href="#m51f60194a2" y="53.568"/>
      </g>
     </g>
     <g id="text_13">
      <!-- 1.0 -->
      <g transform="translate(34.696875 57.367219)scale(0.1 -0.1)">
       <use xlink:href="#DejaVuSerif-49"/>
       <use x="63.623047" xlink:href="#DejaVuSerif-46"/>
       <use x="95.410156" xlink:href="#DejaVuSerif-48"/>
      </g>
     </g>
    </g>
    <g id="text_14">
     <!-- True Positive Rate -->
     <g transform="translate(26.785312 239.827063)rotate(-90)scale(0.14 -0.14)">
      <defs>
       <path d="M 19.09375 0 
L 19.09375 5.171875 
L 28.421875 5.171875 
L 28.421875 67.09375 
L 6.984375 67.09375 
L 6.984375 55.71875 
L 0.984375 55.71875 
L 0.984375 72.90625 
L 65.71875 72.90625 
L 65.71875 55.71875 
L 59.71875 55.71875 
L 59.71875 67.09375 
L 38.28125 67.09375 
L 38.28125 5.171875 
L 47.609375 5.171875 
L 47.609375 0 
z
" id="DejaVuSerif-84"/>
       <path d="M 47.796875 52 
L 47.796875 39.015625 
L 42.625 39.015625 
Q 42.390625 42.875 40.484375 44.78125 
Q 38.578125 46.6875 34.90625 46.6875 
Q 28.265625 46.6875 24.71875 42.09375 
Q 21.1875 37.5 21.1875 28.90625 
L 21.1875 5.171875 
L 31.59375 5.171875 
L 31.59375 0 
L 4.109375 0 
L 4.109375 5.171875 
L 12.203125 5.171875 
L 12.203125 46.78125 
L 3.609375 46.78125 
L 3.609375 51.90625 
L 21.1875 51.90625 
L 21.1875 42.671875 
Q 23.828125 48.09375 27.96875 50.703125 
Q 32.125 53.328125 38.09375 53.328125 
Q 40.28125 53.328125 42.703125 52.984375 
Q 45.125 52.640625 47.796875 52 
z
" id="DejaVuSerif-114"/>
       <path d="M 35.40625 51.90625 
L 52.203125 51.90625 
L 52.203125 5.171875 
L 60.6875 5.171875 
L 60.6875 0 
L 43.21875 0 
L 43.21875 9.1875 
Q 40.71875 4 36.765625 1.28125 
Q 32.8125 -1.421875 27.59375 -1.421875 
Q 18.953125 -1.421875 14.875 3.484375 
Q 10.796875 8.40625 10.796875 18.890625 
L 10.796875 46.6875 
L 2.6875 46.6875 
L 2.6875 51.90625 
L 19.828125 51.90625 
L 19.828125 21.6875 
Q 19.828125 12.203125 22.140625 8.6875 
Q 24.46875 5.171875 30.421875 5.171875 
Q 36.671875 5.171875 39.9375 9.765625 
Q 43.21875 14.359375 43.21875 23.09375 
L 43.21875 46.6875 
L 35.40625 46.6875 
z
" id="DejaVuSerif-117"/>
      </defs>
      <use xlink:href="#DejaVuSerif-84"/>
      <use x="66.699219" xlink:href="#DejaVuSerif-114"/>
      <use x="114.501953" xlink:href="#DejaVuSerif-117"/>
      <use x="178.90625" xlink:href="#DejaVuSerif-101"/>
      <use x="238.085938" xlink:href="#DejaVuSerif-32"/>
      <use x="269.873047" xlink:href="#DejaVuSerif-80"/>
      <use x="333.158203" xlink:href="#DejaVuSerif-111"/>
      <use x="393.363281" xlink:href="#DejaVuSerif-115"/>
      <use x="444.681641" xlink:href="#DejaVuSerif-105"/>
      <use x="476.664062" xlink:href="#DejaVuSerif-116"/>
      <use x="516.849609" xlink:href="#DejaVuSerif-105"/>
      <use x="548.832031" xlink:href="#DejaVuSerif-118"/>
      <use x="605.326172" xlink:href="#DejaVuSerif-101"/>
      <use x="664.505859" xlink:href="#DejaVuSerif-32"/>
      <use x="696.292969" xlink:href="#DejaVuSerif-82"/>
      <use x="773.835938" xlink:href="#DejaVuSerif-97"/>
      <use x="833.455078" xlink:href="#DejaVuSerif-116"/>
      <use x="873.640625" xlink:href="#DejaVuSerif-101"/>
     </g>
    </g>
   </g>
   <g id="line2d_13">
    <path clip-path="url(#pb64052e356)" d="M 73.832727 295.488 
L 73.934093 291.598757 
L 73.964503 291.515524 
L 74.065869 290.425931 
L 74.086142 290.365398 
L 74.187508 288.791541 
L 74.207781 288.731008 
L 74.309147 288.072712 
L 74.349693 287.921379 
L 74.440922 286.907452 
L 74.471332 286.884752 
L 74.572698 286.007024 
L 74.582835 286.007024 
L 74.6842 284.614766 
L 74.694337 284.614766 
L 74.795703 283.86567 
L 74.815976 283.812704 
L 74.917342 283.245208 
L 74.957888 283.146841 
L 75.059254 281.830249 
L 75.109937 281.731883 
L 75.211303 281.17952 
L 75.221439 281.17952 
L 75.322805 280.195859 
L 75.343078 280.112627 
L 75.444444 279.257598 
L 75.484991 279.174366 
L 75.586356 278.266371 
L 75.637039 278.220971 
L 75.738405 277.39621 
L 75.789088 277.320543 
L 75.890454 276.85898 
L 75.920864 276.843846 
L 76.02223 275.905585 
L 76.032366 275.905585 
L 76.133732 275.08839 
L 76.164142 275.012724 
L 76.265508 273.99123 
L 76.285781 273.983664 
L 76.387147 273.461567 
L 76.43783 273.393467 
L 76.539195 272.795704 
L 76.559469 272.765438 
L 76.660834 272.061742 
L 76.701381 271.993642 
L 76.802747 271.184014 
L 76.843293 271.078081 
L 76.944659 270.593818 
L 76.964932 270.578684 
L 77.066298 270.056588 
L 77.096708 269.965788 
L 77.198074 269.67069 
L 77.20821 269.67069 
L 77.309576 268.838362 
L 77.329849 268.808095 
L 77.431215 268.391931 
L 77.461625 268.285998 
L 77.562991 267.854701 
L 77.603537 267.748768 
L 77.704903 267.188838 
L 77.725176 267.090472 
L 77.826542 266.757541 
L 77.887361 266.674308 
L 77.988727 266.40191 
L 78.059683 266.295977 
L 78.150912 265.917646 
L 78.201595 265.811713 
L 78.302961 265.244217 
L 78.333371 265.138284 
L 78.434737 264.449722 
L 78.45501 264.358922 
L 78.556376 264.154623 
L 78.576649 264.124357 
L 78.678015 263.57956 
L 78.698288 263.503894 
L 78.799654 263.11043 
L 78.819927 263.095296 
L 78.921293 262.4597 
L 78.951703 262.399167 
L 79.053069 261.846804 
L 79.124025 261.740871 
L 79.225391 261.370107 
L 79.2558 261.31714 
L 79.357166 261.105275 
L 79.387576 260.999342 
L 79.488942 260.817744 
L 79.529488 260.719377 
L 79.630854 260.401579 
L 79.691673 260.31078 
L 79.793039 259.962715 
L 79.843722 259.856783 
L 79.945088 259.455752 
L 79.985634 259.387652 
L 80.087 258.941222 
L 80.157956 258.857989 
L 80.259322 258.366158 
L 80.289732 258.282926 
L 80.391098 257.859195 
L 80.421508 257.760829 
L 80.522873 257.495997 
L 80.593829 257.397631 
L 80.685059 257.140366 
L 80.756015 257.049566 
L 80.857381 256.716635 
L 80.928337 256.618269 
L 81.029703 256.45937 
L 81.080386 256.361004 
L 81.171615 255.891873 
L 81.252708 255.83134 
L 81.354073 255.331943 
L 81.404756 255.241144 
L 81.506122 254.908213 
L 81.556805 254.832546 
L 81.648034 254.567715 
L 81.71899 254.469349 
L 81.820356 254.249917 
L 81.871039 254.21965 
L 81.972405 253.856452 
L 81.992678 253.75052 
L 82.094044 253.440288 
L 82.144727 253.334356 
L 82.235956 253.21329 
L 82.306912 253.14519 
L 82.408278 252.600393 
L 82.438688 252.494461 
L 82.540054 252.214496 
L 82.661693 252.11613 
L 82.763059 252.010197 
L 82.793468 251.964797 
L 82.894834 251.775632 
L 82.945517 251.722665 
L 83.036746 251.5108 
L 83.097566 251.427567 
L 83.198932 251.177869 
L 83.280025 251.071936 
L 83.38139 250.860071 
L 83.44221 250.776838 
L 83.543576 250.48174 
L 83.584122 250.398507 
L 83.685488 249.952076 
L 83.726034 249.861277 
L 83.8274 249.445112 
L 83.88822 249.354313 
L 83.989585 248.847349 
L 84.090951 248.741417 
L 84.192317 248.400919 
L 84.253137 248.370652 
L 84.354503 247.818289 
L 84.395049 247.712356 
L 84.496415 247.508058 
L 84.547098 247.402125 
L 84.648464 247.182693 
L 84.68901 247.091893 
L 84.790376 246.796795 
L 84.901878 246.690863 
L 85.003244 246.289832 
L 85.084337 246.183899 
L 85.185703 245.798001 
L 85.216112 245.699635 
L 85.317478 245.518036 
L 85.378298 245.449937 
L 85.479663 245.222938 
L 85.570893 245.132139 
L 85.662122 244.92784 
L 85.733078 244.852174 
L 85.824307 244.519242 
L 85.895263 244.420876 
L 85.996629 244.209011 
L 86.057449 244.110645 
L 86.158815 243.823113 
L 86.229771 243.717181 
L 86.321 243.512882 
L 86.38182 243.422082 
L 86.473049 243.051318 
L 86.574415 242.968085 
L 86.645371 242.703253 
L 86.746737 242.604887 
L 86.848102 242.453555 
L 86.868376 242.445988 
L 86.969741 241.870925 
L 87.050834 241.780126 
L 87.1522 241.485027 
L 87.21302 241.409361 
L 87.314385 240.962931 
L 87.436024 240.856998 
L 87.53739 240.660266 
L 87.588073 240.5619 
L 87.689439 240.281935 
L 87.841488 240.176002 
L 87.942854 239.986836 
L 87.973263 239.903604 
L 88.074629 239.684172 
L 88.145585 239.608505 
L 88.246951 239.358807 
L 88.33818 239.260441 
L 88.439546 238.988043 
L 88.490229 238.897243 
L 88.581458 238.700511 
L 88.662551 238.602145 
L 88.763917 238.435679 
L 88.794327 238.34488 
L 88.895693 238.064915 
L 89.017332 237.958982 
L 89.108561 237.648751 
L 89.149107 237.550385 
L 89.240337 237.361219 
L 89.321429 237.255286 
L 89.412658 237.028288 
L 89.473478 236.960188 
L 89.574844 236.66509 
L 89.655937 236.566724 
L 89.757302 236.264059 
L 89.848532 236.188393 
L 89.949897 235.946261 
L 90.010717 235.847895 
L 90.112083 235.666296 
L 90.172902 235.583063 
L 90.274268 235.371198 
L 90.365497 235.272832 
L 90.466863 235.0534 
L 90.568229 234.955034 
L 90.669595 234.728035 
L 90.689868 234.705335 
L 90.791234 234.395104 
L 90.882463 234.311871 
L 90.983829 234.054606 
L 91.024375 233.963806 
L 91.125741 233.729241 
L 91.196697 233.630875 
L 91.287927 233.35091 
L 91.369019 233.244977 
L 91.419702 233.055812 
L 91.541341 232.972579 
L 91.642707 232.722881 
L 91.75421 232.616948 
L 91.835302 232.533715 
L 91.906258 232.442916 
L 91.977214 232.238617 
L 92.119127 232.140251 
L 92.220493 231.913252 
L 92.301585 231.822453 
L 92.402951 231.618154 
L 92.473907 231.527354 
L 92.575273 231.383589 
L 92.646229 231.292789 
L 92.727322 231.08849 
L 92.808414 230.982558 
L 92.90978 230.732859 
L 93.021283 230.626927 
L 93.112512 230.339395 
L 93.183468 230.241029 
L 93.284834 229.877831 
L 93.35579 229.809732 
L 93.457156 229.5676 
L 93.528112 229.469234 
L 93.629478 229.227102 
L 93.781527 229.128736 
L 93.882892 228.848771 
L 94.014668 228.742838 
L 94.116034 228.583939 
L 94.166717 228.485573 
L 94.268083 228.372074 
L 94.379585 228.266141 
L 94.480951 228.175341 
L 94.551907 228.069409 
L 94.653273 227.81971 
L 94.785049 227.713778 
L 94.886414 227.486779 
L 94.95737 227.411113 
L 95.058736 227.214381 
L 95.119556 227.131148 
L 95.220922 226.949549 
L 95.241195 226.941982 
L 95.332424 226.684717 
L 95.393244 226.593918 
L 95.484473 226.283686 
L 95.585839 226.177754 
L 95.687205 225.988588 
L 95.758161 225.890222 
L 95.859527 225.784289 
L 95.960892 225.754023 
L 96.062258 225.60269 
L 96.102805 225.572424 
L 96.194034 225.413525 
L 96.26499 225.345425 
L 96.366356 225.012494 
L 96.447448 224.906561 
L 96.548814 224.785495 
L 96.660317 224.679563 
L 96.761683 224.475264 
L 96.842775 224.399598 
L 96.944141 224.157466 
L 97.06578 224.051533 
L 97.157009 223.786701 
L 97.258375 223.703469 
L 97.359741 223.537003 
L 97.420561 223.45377 
L 97.521926 223.272171 
L 97.582746 223.173805 
L 97.673975 222.977073 
L 97.775341 222.886273 
L 97.856434 222.757641 
L 97.86657 222.757641 
L 97.9578 222.712241 
L 98.059166 222.523076 
L 98.170668 222.417143 
L 98.272034 222.273377 
L 98.353126 222.167445 
L 98.444356 222.099345 
L 98.495039 222.016112 
L 98.586268 221.88748 
L 98.687634 221.781547 
L 98.789 221.668048 
L 98.951185 221.569681 
L 99.052551 221.25945 
L 99.123507 221.153517 
L 99.2046 221.017318 
L 99.336375 220.911385 
L 99.437741 220.79032 
L 99.498561 220.691953 
L 99.599926 220.525488 
L 99.701292 220.419555 
L 99.802658 220.275789 
L 99.904024 220.169857 
L 99.995253 219.965558 
L 100.066209 219.859625 
L 100.127029 219.776392 
L 100.309487 219.678026 
L 100.410853 219.549394 
L 100.512219 219.451028 
L 100.603448 219.322395 
L 100.674404 219.216462 
L 100.77577 219.06513 
L 100.907546 218.959197 
L 100.978502 218.891098 
L 101.029185 218.838131 
L 101.120414 218.611133 
L 101.242053 218.512767 
L 101.343419 218.338734 
L 101.454921 218.232802 
L 101.536014 218.172269 
L 101.617107 218.066336 
L 101.708336 217.930137 
L 101.779292 217.877171 
L 101.870521 217.566939 
L 101.961751 217.506406 
L 102.063117 217.332374 
L 102.134073 217.249141 
L 102.235439 217.075109 
L 102.357078 216.969176 
L 102.428034 216.772444 
L 102.488853 216.711911 
L 102.580082 216.553012 
L 102.681448 216.454646 
L 102.782814 216.318447 
L 102.82336 216.220081 
L 102.924726 215.970382 
L 103.076775 215.872016 
L 103.157868 215.697984 
L 103.23896 215.645017 
L 103.340326 215.425585 
L 103.401146 215.334786 
L 103.482238 215.19102 
L 103.563331 215.130487 
L 103.664697 214.986721 
L 103.725517 214.903489 
L 103.826882 214.638657 
L 103.938385 214.532724 
L 104.039751 214.283026 
L 104.141117 214.192226 
L 104.242482 214.09386 
L 104.353985 213.987927 
L 104.455351 213.851728 
L 104.526307 213.745796 
L 104.627673 213.564197 
L 104.688492 213.51123 
L 104.789858 213.367465 
L 104.840541 213.284232 
L 104.941907 213.140466 
L 105.134502 213.034533 
L 105.235868 212.875634 
L 105.31696 212.784835 
L 105.398053 212.625936 
L 105.580512 212.52757 
L 105.681877 212.444337 
L 105.79338 212.345971 
L 105.884609 212.187072 
L 105.955565 212.126539 
L 106.036658 211.952506 
L 106.168434 211.87684 
L 106.269799 211.710375 
L 106.361029 211.612009 
L 106.452258 211.369877 
L 106.56376 211.271511 
L 106.665126 211.089912 
L 106.756355 210.983979 
L 106.847585 210.89318 
L 106.97936 210.809947 
L 107.080726 210.711581 
L 107.131409 210.658614 
L 107.232775 210.522415 
L 107.324004 210.431616 
L 107.42537 210.212184 
L 107.476053 210.106251 
L 107.567282 209.879252 
L 107.699058 209.780886 
L 107.800424 209.629554 
L 107.881516 209.538754 
L 107.982882 209.470655 
L 108.134931 209.364722 
L 108.236297 209.16799 
L 108.368072 209.062057 
L 108.439029 208.948558 
L 108.520121 208.865325 
L 108.621487 208.661026 
L 108.753263 208.555094 
L 108.834355 208.312962 
L 109.026951 208.222162 
L 109.128316 207.957331 
L 109.219546 207.851398 
L 109.310775 207.631966 
L 109.402004 207.5336 
L 109.50337 207.374701 
L 109.645282 207.268768 
L 109.746648 207.162835 
L 109.868287 207.072036 
L 109.94938 206.981237 
L 110.040609 206.90557 
L 110.121702 206.829904 
L 110.243341 206.746671 
L 110.344707 206.678572 
L 110.425799 206.580206 
L 110.527165 206.43644 
L 110.618394 206.330507 
L 110.71976 206.262408 
L 110.800853 206.171608 
L 110.902219 205.959743 
L 111.054268 205.861377 
L 111.10495 205.80841 
L 111.226589 205.702478 
L 111.317819 205.596545 
L 111.55096 205.498179 
L 111.642189 205.392246 
L 111.713146 205.31658 
L 111.794238 205.256047 
L 111.855058 205.195514 
L 111.956424 204.915549 
L 112.078063 204.817183 
L 112.149019 204.650717 
L 112.230111 204.559918 
L 112.331477 204.279953 
L 112.372024 204.17402 
L 112.453116 204.075654 
L 112.564619 203.969722 
L 112.635575 203.878922 
L 112.747077 203.772989 
L 112.848443 203.606524 
L 113.020765 203.500591 
L 113.101858 203.417358 
L 113.162677 203.356825 
L 113.253906 203.160093 
L 113.385682 203.07686 
L 113.487048 202.970928 
L 113.59855 202.872561 
L 113.679643 202.743929 
L 113.801282 202.637996 
L 113.892511 202.471531 
L 114.07497 202.365598 
L 114.176336 202.259665 
L 114.287838 202.176432 
L 114.379067 201.987267 
L 114.49057 201.881334 
L 114.591936 201.805668 
L 114.794667 201.707302 
L 114.885897 201.593803 
L 114.987263 201.503003 
L 115.088628 201.359237 
L 115.250814 201.253305 
L 115.35218 201.147372 
L 115.463682 201.041439 
L 115.565048 200.943073 
L 115.70696 200.852274 
L 115.798189 200.731208 
L 115.869145 200.655542 
L 115.869145 200.625275 
L 115.970511 200.504209 
L 116.071877 200.405843 
L 116.163106 200.231811 
L 116.315155 200.125878 
L 116.416521 199.944279 
L 116.609116 199.838347 
L 116.710482 199.679448 
L 116.872667 199.573515 
L 116.974033 199.376783 
L 117.126082 199.278417 
L 117.217311 199.164917 
L 117.30854 199.066551 
L 117.389633 198.930352 
L 117.551819 198.824419 
L 117.653184 198.68822 
L 117.75455 198.582288 
L 117.845779 198.468788 
L 118.058648 198.362855 
L 118.160014 198.279623 
L 118.220833 198.17369 
L 118.322199 198.029924 
L 118.372882 197.923991 
L 118.464111 197.863459 
L 118.55534 197.765092 
L 118.656706 197.719693 
L 118.707389 197.621327 
L 118.808755 197.507827 
L 118.899984 197.401895 
L 118.991214 197.318662 
L 119.234492 197.212729 
L 119.335857 197.03113 
L 119.437223 196.955464 
L 119.538589 196.705766 
L 119.670365 196.614966 
L 119.670365 196.607399 
L 119.771731 196.372834 
L 119.852823 196.282035 
L 119.933916 196.191235 
L 120.055555 196.085303 
L 120.156921 195.986937 
L 120.288696 195.88857 
L 120.390062 195.775071 
L 120.582657 195.669138 
L 120.684023 195.578339 
L 120.754979 195.479973 
L 120.856345 195.37404 
L 120.967848 195.290807 
L 121.069214 195.124342 
L 121.190853 195.018409 
L 121.292218 194.920043 
L 121.55577 194.81411 
L 121.657135 194.677911 
L 121.738228 194.594678 
L 121.829457 194.405513 
L 121.961233 194.307147 
L 122.042326 194.193647 
L 122.224784 194.087715 
L 122.305877 193.996915 
L 122.437653 193.890983 
L 122.518745 193.777483 
L 122.630248 193.671551 
L 122.731613 193.527785 
L 122.914072 193.429419 
L 123.015438 193.338619 
L 123.076257 193.232687 
L 123.177623 193.126754 
L 123.360082 193.020821 
L 123.461448 192.922455 
L 123.522267 192.877055 
L 123.623633 192.73329 
L 123.724999 192.627357 
L 123.826365 192.521424 
L 123.887184 192.460891 
L 123.95814 192.309559 
L 124.100052 192.218759 
L 124.160872 192.037161 
L 124.241965 191.961494 
L 124.34333 191.840428 
L 124.566335 191.742062 
L 124.637291 191.628563 
L 124.779204 191.52263 
L 124.88057 191.401564 
L 124.931252 191.303198 
L 125.032618 191.197266 
L 125.073165 191.189699 
L 125.154257 190.917301 
L 125.286033 190.856768 
L 125.377262 190.705435 
L 125.509038 190.599503 
L 125.610404 190.42547 
L 125.721906 190.334671 
L 125.782726 190.266571 
L 125.955048 190.183338 
L 126.056413 190.047139 
L 126.147643 189.941207 
L 126.218599 189.895807 
L 126.340238 189.789874 
L 126.441604 189.623408 
L 126.664608 189.517476 
L 126.765974 189.403976 
L 126.847067 189.320744 
L 126.948433 189.146711 
L 127.049799 189.040779 
L 127.151165 188.965112 
L 127.262667 188.85918 
L 127.34376 188.828913 
L 127.536355 188.722981 
L 127.627584 188.541382 
L 127.749223 188.450582 
L 127.850589 188.306816 
L 127.951955 188.200884 
L 128.043184 188.057118 
L 128.245916 187.951185 
L 128.347282 187.845253 
L 128.458784 187.76202 
L 128.52974 187.610687 
L 128.661516 187.535021 
L 128.762882 187.451788 
L 128.894657 187.360989 
L 128.985886 187.232356 
L 129.158208 187.126424 
L 129.259574 187.012924 
L 129.411623 186.906992 
L 129.512989 186.740526 
L 129.614355 186.634593 
L 129.715721 186.528661 
L 129.786677 186.452994 
L 129.888043 186.248696 
L 130.040091 186.142763 
L 130.141457 185.991431 
L 130.242823 185.885498 
L 130.344189 185.749299 
L 130.425282 185.658499 
L 130.526647 185.545 
L 130.63815 185.4542 
L 130.729379 185.333134 
L 130.871291 185.227202 
L 130.962521 185.143969 
L 131.08416 185.060736 
L 131.185525 184.91697 
L 131.337574 184.811038 
L 131.347711 184.780771 
L 131.530169 184.674838 
L 131.631535 184.576472 
L 131.763311 184.49324 
L 131.85454 184.394874 
L 132.036999 184.311641 
L 132.138364 184.190575 
L 132.229594 184.084642 
L 132.320823 183.986276 
L 132.412052 183.880343 
L 132.513418 183.766844 
L 132.65533 183.660911 
L 132.746559 183.607945 
L 132.827652 183.532279 
L 132.929018 183.335547 
L 133.010111 183.237181 
L 133.091203 183.093415 
L 133.263525 182.995049 
L 133.364891 182.889116 
L 133.587896 182.783183 
L 133.689262 182.571318 
L 133.821038 182.472952 
L 133.912267 182.329186 
L 134.003496 182.23082 
L 134.104862 182.026521 
L 134.246774 181.928155 
L 134.338003 181.852489 
L 134.510325 181.746556 
L 134.601555 181.610357 
L 134.753603 181.504424 
L 134.854969 181.443891 
L 135.047564 181.337959 
L 135.138794 181.232026 
L 135.270569 181.126093 
L 135.371935 181.057994 
L 135.513847 180.959628 
L 135.615213 180.846128 
L 135.736852 180.740196 
L 135.817945 180.603996 
L 136.020676 180.513197 
L 136.111906 180.414831 
L 136.172725 180.354298 
L 136.263954 180.210532 
L 136.355184 180.127299 
L 136.436276 180.021367 
L 136.486959 179.915434 
L 136.578189 179.862468 
L 136.709964 179.771668 
L 136.801194 179.680869 
L 136.963379 179.597636 
L 137.064745 179.438737 
L 137.277613 179.332804 
L 137.378979 179.219305 
L 137.470208 179.120939 
L 137.561437 179.022573 
L 137.693213 178.91664 
L 137.794579 178.833407 
L 137.865535 178.727475 
L 137.946628 178.613975 
L 138.037857 178.515609 
L 138.11895 178.439943 
L 138.169632 178.35671 
L 138.260862 178.243211 
L 138.463593 178.144845 
L 138.564959 178.016212 
L 138.787964 177.917846 
L 138.88933 177.75138 
L 139.021106 177.653014 
L 139.122471 177.584915 
L 139.233974 177.486549 
L 139.325203 177.410883 
L 139.416432 177.320083 
L 139.517798 177.244417 
L 139.679984 177.146051 
L 139.75094 177.024985 
L 139.973945 176.919052 
L 140.034764 176.775286 
L 140.186813 176.69962 
L 140.278042 176.593687 
L 140.369271 176.495321 
L 140.470637 176.306156 
L 140.622686 176.200223 
L 140.632823 176.169957 
L 140.845691 176.064024 
L 140.947057 175.920258 
L 141.088969 175.814326 
L 141.180198 175.708393 
L 141.342384 175.60246 
L 141.443749 175.496527 
L 141.555252 175.398161 
L 141.646481 175.322495 
L 141.82894 175.224129 
L 141.930306 175.118196 
L 141.991125 175.012264 
L 142.092491 174.853365 
L 142.224266 174.747432 
L 142.325632 174.611233 
L 142.457408 174.5053 
L 142.558774 174.444767 
L 142.690549 174.361534 
L 142.761506 174.301001 
L 142.923691 174.202635 
L 143.01492 174.096703 
L 143.156832 173.99077 
L 143.258198 173.809171 
L 143.46093 173.725938 
L 143.552159 173.529206 
L 143.775164 173.445973 
L 143.87653 173.302207 
L 143.998169 173.196275 
L 144.099535 173.060076 
L 144.23131 172.969276 
L 144.32254 172.87091 
L 144.535408 172.780111 
L 144.636774 172.628778 
L 144.788823 172.537979 
L 144.890188 172.454746 
L 145.032101 172.363946 
L 145.133466 172.26558 
L 145.244969 172.174781 
L 145.346335 172.083981 
L 145.447701 171.978049 
L 145.528793 171.84185 
L 145.630159 171.75105 
L 145.711252 171.645117 
L 145.822754 171.546751 
L 145.92412 171.357586 
L 146.015349 171.25922 
L 146.106579 171.130587 
L 146.116715 171.130587 
L 146.258627 171.024655 
L 146.359993 170.926289 
L 146.441086 170.827922 
L 146.532315 170.752256 
L 146.704637 170.65389 
L 146.78573 170.555524 
L 146.988461 170.449591 
L 147.089827 170.366359 
L 147.221603 170.260426 
L 147.312832 170.154493 
L 147.535837 170.04856 
L 147.61693 169.980461 
L 147.829798 169.882095 
L 147.931164 169.715629 
L 148.03253 169.609696 
L 148.073076 169.53403 
L 148.245398 169.435664 
L 148.346764 169.352431 
L 148.458266 169.246499 
L 148.559632 169.072466 
L 148.731954 168.966534 
L 148.83332 168.845468 
L 148.975232 168.739535 
L 149.076598 168.610903 
L 149.27933 168.512536 
L 149.360422 168.376337 
L 149.421242 168.270405 
L 149.522608 168.217438 
L 149.654383 168.111506 
L 149.745613 168.035839 
L 149.877388 167.929907 
L 149.978754 167.793707 
L 150.059847 167.702908 
L 150.151076 167.619675 
L 150.272715 167.513743 
L 150.374081 167.36241 
L 150.52613 167.286744 
L 150.627495 166.991646 
L 150.789681 166.89328 
L 150.891047 166.77978 
L 151.002549 166.681414 
L 151.083642 166.613315 
L 151.215417 166.522515 
L 151.286374 166.446849 
L 151.458695 166.348483 
L 151.549925 166.21985 
L 151.701974 166.121484 
L 151.803339 165.917186 
L 151.955388 165.811253 
L 152.046617 165.720453 
L 152.168256 165.644787 
L 152.269622 165.531288 
L 152.381125 165.432922 
L 152.462217 165.319422 
L 152.624403 165.21349 
L 152.715632 165.077291 
L 152.887954 164.971358 
L 152.98932 164.842725 
L 153.151505 164.751926 
L 153.242734 164.645993 
L 153.37451 164.547627 
L 153.475876 164.464394 
L 153.648198 164.358462 
L 153.749564 164.207129 
L 153.891476 164.101197 
L 153.992842 163.995264 
L 154.155027 163.889331 
L 154.23612 163.737999 
L 154.357759 163.632066 
L 154.459125 163.5337 
L 154.641583 163.427767 
L 154.722676 163.367234 
L 154.945681 163.261302 
L 155.03691 163.178069 
L 155.199095 163.079703 
L 155.300461 163.01917 
L 155.442373 162.913237 
L 155.533603 162.837571 
L 155.716061 162.731638 
L 155.817427 162.633272 
L 155.979612 162.527339 
L 156.080978 162.451673 
L 156.233027 162.360874 
L 156.334393 162.239808 
L 156.506715 162.133875 
L 156.608081 162.005243 
L 156.810812 161.906877 
L 156.902042 161.793377 
L 157.064227 161.687445 
L 157.165593 161.604212 
L 157.297368 161.498279 
L 157.398734 161.392346 
L 157.631876 161.309113 
L 157.733242 161.195614 
L 158.037339 161.089681 
L 158.138705 161.014015 
L 158.290754 160.908083 
L 158.36171 160.817283 
L 158.523895 160.718917 
L 158.625261 160.590284 
L 158.767173 160.484352 
L 158.868539 160.416252 
L 158.949632 160.317886 
L 159.040861 160.204387 
L 159.19291 160.098454 
L 159.294276 160.000088 
L 159.415915 159.901722 
L 159.497007 159.841189 
L 159.720012 159.742823 
L 159.811242 159.629324 
L 160.135612 159.523391 
L 160.216705 159.440158 
L 160.368754 159.334225 
L 160.47012 159.243426 
L 160.571485 159.137493 
L 160.642442 159.039127 
L 160.79449 158.933195 
L 160.895856 158.902928 
L 161.047905 158.812129 
L 161.128998 158.728896 
L 161.382412 158.622963 
L 161.483778 158.494331 
L 161.666237 158.388398 
L 161.737193 158.305165 
L 161.970334 158.199232 
L 162.0717 158.0479 
L 162.162929 157.9571 
L 162.244022 157.881434 
L 162.375798 157.790635 
L 162.477163 157.609036 
L 162.690032 157.503103 
L 162.791398 157.41987 
L 162.983993 157.336638 
L 163.085358 157.245838 
L 163.247544 157.139905 
L 163.34891 157.064239 
L 163.551641 156.958307 
L 163.612461 156.920473 
L 163.876012 156.822107 
L 163.957105 156.761574 
L 164.169973 156.655642 
L 164.271339 156.564842 
L 164.362568 156.474043 
L 164.443661 156.398377 
L 164.605846 156.300011 
L 164.707212 156.163811 
L 164.940354 156.057879 
L 165.041719 156.012479 
L 165.244451 155.914113 
L 165.33568 155.838447 
L 165.589095 155.732514 
L 165.690461 155.664414 
L 165.84251 155.566048 
L 165.933739 155.482815 
L 166.126334 155.376883 
L 166.2277 155.210417 
L 166.329066 155.104484 
L 166.400022 155.074218 
L 166.541934 154.975852 
L 166.633163 154.771553 
L 166.714256 154.673187 
L 166.805485 154.627787 
L 166.856168 154.544554 
L 166.957534 154.408355 
L 167.180539 154.302423 
L 167.271768 154.249456 
L 167.352861 154.166223 
L 167.454227 154.060291 
L 167.636685 153.969491 
L 167.727914 153.886258 
L 167.930646 153.787892 
L 168.021875 153.68196 
L 168.24488 153.576027 
L 168.315836 153.492794 
L 168.548978 153.386862 
L 168.650344 153.280929 
L 168.873349 153.182563 
L 168.974714 153.061497 
L 169.065944 152.985831 
L 169.157173 152.766399 
L 169.319358 152.660466 
L 169.400451 152.569666 
L 169.542363 152.463734 
L 169.633592 152.403201 
L 169.785641 152.304835 
L 169.887007 152.198902 
L 170.039056 152.092969 
L 170.140422 152.009737 
L 170.333017 151.903804 
L 170.403973 151.865971 
L 170.515475 151.797871 
L 170.616841 151.616272 
L 170.829709 151.51034 
L 170.931075 151.44224 
L 171.093261 151.336307 
L 171.194627 151.275774 
L 171.427768 151.177408 
L 171.529134 151.101742 
L 171.721729 151.003376 
L 171.802822 150.88231 
L 171.95487 150.776377 
L 172.056236 150.625045 
L 172.248831 150.519112 
L 172.289378 150.488846 
L 172.573202 150.39048 
L 172.674568 150.27698 
L 172.755661 150.171048 
L 172.857026 150.125648 
L 173.009075 150.034848 
L 173.100305 149.951616 
L 173.343583 149.845683 
L 173.444948 149.732184 
L 173.586861 149.626251 
L 173.688226 149.565718 
L 174.002461 149.459785 
L 174.09369 149.353853 
L 174.367378 149.27062 
L 174.458607 149.15712 
L 174.519426 149.066321 
L 174.620792 148.998221 
L 174.742431 148.892289 
L 174.843797 148.771223 
L 174.985709 148.672857 
L 175.087075 148.597191 
L 175.249261 148.491258 
L 175.350626 148.377759 
L 175.553358 148.279392 
L 175.654724 148.188593 
L 175.766226 148.090227 
L 175.847319 148.014561 
L 176.019641 147.931328 
L 176.121007 147.795129 
L 176.313602 147.696763 
L 176.404831 147.63623 
L 176.648109 147.560563 
L 176.749475 147.484897 
L 176.91166 147.401664 
L 176.982617 147.310865 
L 177.185348 147.204932 
L 177.276578 147.136833 
L 177.438763 147.038467 
L 177.519856 146.993067 
L 177.702314 146.902267 
L 177.80368 146.766068 
L 178.026685 146.675269 
L 178.097641 146.546636 
L 178.310509 146.440704 
L 178.411875 146.372604 
L 178.543651 146.281805 
L 178.63488 146.168305 
L 178.807202 146.077506 
L 178.878158 145.964007 
L 178.98966 145.873207 
L 179.08089 145.759708 
L 179.212665 145.653775 
L 179.283621 145.525142 
L 179.486353 145.434343 
L 179.577582 145.320844 
L 179.689085 145.267877 
L 179.760041 145.169511 
L 180.003319 145.063579 
L 180.084412 145.003046 
L 180.175641 144.927379 
L 180.256734 144.829013 
L 180.429055 144.730647 
L 180.530421 144.632281 
L 180.864929 144.526349 
L 180.956158 144.390149 
L 181.270392 144.291783 
L 181.361621 144.178284 
L 181.554216 144.079918 
L 181.655582 143.989118 
L 181.919133 143.890752 
L 182.020499 143.830219 
L 182.091455 143.724287 
L 182.192821 143.610787 
L 182.385416 143.504855 
L 182.486782 143.406489 
L 182.648968 143.323256 
L 182.750333 143.217323 
L 182.983475 143.11139 
L 183.074704 142.967625 
L 183.186207 142.861692 
L 183.247026 142.770893 
L 183.439621 142.66496 
L 183.540987 142.536327 
L 183.743719 142.430395 
L 183.834948 142.369862 
L 183.97686 142.263929 
L 184.078226 142.165563 
L 184.260685 142.067197 
L 184.341777 141.976397 
L 184.605329 141.878031 
L 184.706694 141.749399 
L 184.828333 141.643466 
L 184.919563 141.598066 
L 185.061475 141.507267 
L 185.142568 141.378634 
L 185.345299 141.287835 
L 185.446665 141.227302 
L 185.629124 141.121369 
L 185.730489 141.083536 
L 185.872402 140.98517 
L 185.963631 140.848971 
L 186.05486 140.743038 
L 186.146089 140.674939 
L 186.318411 140.569006 
L 186.399504 140.49334 
L 186.703602 140.394974 
L 186.784694 140.319307 
L 187.068519 140.213375 
L 187.119202 140.175542 
L 187.250977 140.077176 
L 187.352343 139.948543 
L 187.544938 139.84261 
L 187.636167 139.736678 
L 187.869309 139.638312 
L 187.970675 139.524812 
L 188.112587 139.426446 
L 188.213953 139.381046 
L 188.51805 139.275114 
L 188.589006 139.237281 
L 188.741055 139.131348 
L 188.822148 139.055682 
L 189.045153 138.995149 
L 189.136382 138.904349 
L 189.37966 138.798417 
L 189.460753 138.72275 
L 189.653348 138.639518 
L 189.744577 138.510885 
L 189.997992 138.404952 
L 190.099358 138.306586 
L 190.281816 138.200654 
L 190.383182 138.079588 
L 190.585914 137.973655 
L 190.68728 137.905555 
L 190.758236 137.799623 
L 190.859601 137.708823 
L 191.052197 137.602891 
L 191.143426 137.519658 
L 191.254928 137.421292 
L 191.356294 137.375892 
L 191.48807 137.269959 
L 191.579299 137.164027 
L 191.721211 137.058094 
L 191.802304 136.997561 
L 191.944216 136.891628 
L 192.045582 136.808395 
L 192.25845 136.702463 
L 192.349679 136.61923 
L 192.633504 136.513297 
L 192.724733 136.384665 
L 192.907192 136.278732 
L 193.008558 136.157666 
L 193.15047 136.0593 
L 193.251836 135.983634 
L 193.454567 135.877701 
L 193.555933 135.817168 
L 193.637026 135.726369 
L 193.687709 135.650702 
L 193.738392 135.650702 
L 194.113445 135.54477 
L 194.194538 135.484237 
L 194.458089 135.393437 
L 194.518909 135.348038 
L 194.75205 135.257238 
L 194.853416 135.204272 
L 195.086557 135.098339 
L 195.147377 134.999973 
L 195.400792 134.909174 
L 195.502157 134.803241 
L 195.715026 134.697308 
L 195.785982 134.644342 
L 196.090079 134.538409 
L 196.181309 134.47031 
L 196.38404 134.394643 
L 196.485406 134.228178 
L 196.596909 134.122245 
L 196.698274 133.986046 
L 196.971962 133.88768 
L 197.053055 133.781747 
L 197.326743 133.675814 
L 197.428109 133.577448 
L 197.610567 133.486649 
L 197.711933 133.37315 
L 197.975484 133.274783 
L 198.066713 133.183984 
L 198.309991 133.085618 
L 198.411357 132.919152 
L 198.573543 132.81322 
L 198.654635 132.752687 
L 198.837094 132.646754 
L 198.93846 132.601354 
L 199.141191 132.502988 
L 199.212148 132.419755 
L 199.465562 132.313823 
L 199.556791 132.25329 
L 199.73925 132.154924 
L 199.840616 132.071691 
L 199.992665 131.980891 
L 200.09403 131.882525 
L 200.18526 131.784159 
L 200.266352 131.708493 
L 200.458948 131.60256 
L 200.50963 131.534461 
L 200.692089 131.436095 
L 200.783318 131.322595 
L 201.117826 131.224229 
L 201.198918 131.15613 
L 201.34083 131.050197 
L 201.442196 131.004797 
L 201.685474 130.898865 
L 201.766567 130.845898 
L 201.878069 130.747532 
L 201.959162 130.664299 
L 202.111211 130.5962 
L 202.20244 130.497834 
L 202.395035 130.391901 
L 202.496401 130.361634 
L 202.658586 130.263268 
L 202.759952 130.187602 
L 202.962684 130.081669 
L 203.06405 129.983303 
L 203.358011 129.877371 
L 203.44924 129.779005 
L 203.51006 129.741172 
L 203.611425 129.567139 
L 203.743201 129.47634 
L 203.844567 129.377974 
L 204.118255 129.272041 
L 204.219621 129.135842 
L 204.503445 129.029909 
L 204.584538 128.931543 
L 204.777133 128.82561 
L 204.878499 128.749944 
L 205.263689 128.644012 
L 205.365055 128.591045 
L 205.628606 128.485112 
L 205.729972 128.409446 
L 205.841474 128.31108 
L 205.94284 128.212714 
L 206.155708 128.106781 
L 206.206391 128.000849 
L 206.236801 128.000849 
L 206.38885 127.894916 
L 206.480079 127.736017 
L 206.71322 127.637651 
L 206.814586 127.561985 
L 207.007181 127.456052 
L 207.088274 127.372819 
L 207.280869 127.266887 
L 207.341689 127.16852 
L 207.382235 127.16852 
L 207.970157 126.858289 
L 208.142479 126.759923 
L 208.243845 126.585891 
L 208.416167 126.487525 
L 208.507396 126.434558 
L 208.720264 126.328626 
L 208.740537 126.275659 
L 209.004089 126.222693 
L 209.095318 126.101627 
L 209.399416 125.995694 
L 209.490645 125.897328 
L 209.794742 125.806529 
L 209.855562 125.768696 
L 210.119113 125.662763 
L 210.220479 125.53413 
L 210.362391 125.428198 
L 210.433347 125.352531 
L 210.656352 125.246599 
L 210.757718 125.102833 
L 210.940176 124.9969 
L 211.000996 124.959067 
L 211.193591 124.883401 
L 211.203728 124.830435 
L 211.426733 124.724502 
L 211.528098 124.648836 
L 211.76124 124.542903 
L 211.832196 124.467237 
L 212.045064 124.376437 
L 212.14643 124.247805 
L 212.328889 124.141872 
L 212.430254 124.058639 
L 212.56203 123.975406 
L 212.643123 123.87704 
L 212.855991 123.771108 
L 212.957357 123.695442 
L 213.160089 123.589509 
L 213.231045 123.536542 
L 213.372957 123.43061 
L 213.45405 123.33981 
L 213.606098 123.249011 
L 213.697328 123.150645 
L 213.900059 123.044712 
L 213.930469 122.999312 
L 214.123064 122.89338 
L 214.204157 122.832847 
L 214.386615 122.734481 
L 214.487981 122.605848 
L 214.680576 122.515049 
L 214.771806 122.363716 
L 214.903581 122.257784 
L 215.004947 122.174551 
L 215.197542 122.068618 
L 215.288771 121.977819 
L 215.50164 121.887019 
L 215.592869 121.803786 
L 215.714508 121.70542 
L 215.815874 121.614621 
L 216.008469 121.508688 
L 216.099698 121.433022 
L 216.221337 121.349789 
L 216.221337 121.327089 
L 216.322703 121.243856 
L 216.474752 121.137924 
L 216.576118 121.039558 
L 216.829532 120.941192 
L 216.910625 120.857959 
L 217.143766 120.752026 
L 217.245132 120.69906 
L 217.427591 120.615827 
L 217.51882 120.411528 
L 217.640459 120.343428 
L 217.731688 120.260196 
L 217.99524 120.16183 
L 218.096605 120.063464 
L 218.258791 119.957531 
L 218.31961 119.912131 
L 218.481796 119.813765 
L 218.573025 119.775932 
L 218.836576 119.685132 
L 218.927805 119.564067 
L 219.24204 119.458134 
L 219.343405 119.382468 
L 219.56641 119.291668 
L 219.65764 119.238702 
L 219.809688 119.132769 
L 219.870508 119.057103 
L 220.103649 118.95117 
L 220.205015 118.913337 
L 220.42802 118.807404 
L 220.529386 118.731738 
L 220.610479 118.625806 
L 220.681435 118.550139 
L 221.015942 118.444207 
L 221.097035 118.353407 
L 221.218674 118.247475 
L 221.309903 118.209641 
L 221.614 118.103709 
L 221.695093 118.028043 
L 221.877552 117.92211 
L 221.958644 117.846444 
L 222.151239 117.740511 
L 222.252605 117.619445 
L 222.587113 117.513512 
L 222.678342 117.437846 
L 222.962166 117.33948 
L 223.063532 117.29408 
L 223.30681 117.195714 
L 223.398039 117.089782 
L 223.590635 116.983849 
L 223.692 116.87035 
L 223.874459 116.764417 
L 223.965688 116.703884 
L 224.13801 116.597951 
L 224.239376 116.507152 
L 224.472517 116.416352 
L 224.563747 116.317986 
L 224.736069 116.21962 
L 224.837435 116.17422 
L 225.040166 116.068288 
L 225.131395 115.969922 
L 225.425356 115.871556 
L 225.516586 115.795889 
L 225.688908 115.70509 
L 225.780137 115.667257 
L 225.942322 115.568891 
L 226.043688 115.470525 
L 226.307239 115.387292 
L 226.388332 115.341892 
L 226.641747 115.266226 
L 226.732976 115.12246 
L 226.955981 115.031661 
L 227.04721 114.978694 
L 227.290488 114.872762 
L 227.391854 114.789529 
L 227.594586 114.683596 
L 227.695951 114.60793 
L 227.989912 114.501997 
L 228.081142 114.456598 
L 228.29401 114.350665 
L 228.385239 114.267432 
L 228.476469 114.161499 
L 228.527151 114.131233 
L 228.810976 114.032867 
L 228.881932 113.926934 
L 229.186029 113.821001 
L 229.256986 113.783168 
L 229.287395 113.783168 
L 229.652312 113.631836 
L 229.824634 113.525903 
L 229.926 113.472937 
L 230.027366 113.374571 
L 230.118595 113.321604 
L 230.3416 113.223238 
L 230.422693 113.192972 
L 230.584878 113.102172 
L 230.584878 113.094606 
L 230.686244 113.041639 
L 231.030888 112.935707 
L 231.132254 112.844907 
L 231.324849 112.738975 
L 231.426215 112.708708 
L 231.608673 112.602775 
L 231.679629 112.549809 
L 231.892498 112.443876 
L 231.963454 112.36821 
L 232.115503 112.277411 
L 232.216868 112.179045 
L 232.439873 112.080679 
L 232.541239 111.974746 
L 232.774381 111.868813 
L 232.86561 111.793147 
L 233.098751 111.702348 
L 233.189981 111.611548 
L 233.423122 111.520749 
L 233.514351 111.475349 
L 233.767766 111.369416 
L 233.838722 111.324017 
L 233.980634 111.22565 
L 234.082 111.119718 
L 234.325278 111.013785 
L 234.406371 110.945685 
L 234.669922 110.839753 
L 234.751015 110.73382 
L 234.903063 110.627887 
L 234.994293 110.529521 
L 235.217298 110.423589 
L 235.318663 110.385756 
L 235.643034 110.279823 
L 235.7444 110.226856 
L 236.038361 110.120924 
L 236.139727 110.067957 
L 236.301912 109.962025 
L 236.383005 109.901492 
L 236.555327 109.803126 
L 236.636419 109.735026 
L 236.788468 109.63666 
L 236.889834 109.523161 
L 237.092566 109.417228 
L 237.183795 109.311295 
L 237.427073 109.212929 
L 237.487893 109.16753 
L 237.690624 109.061597 
L 237.79199 109.008631 
L 237.944039 108.940531 
L 238.035268 108.819465 
L 238.329229 108.713532 
L 238.420458 108.6303 
L 238.663737 108.524367 
L 238.744829 108.441134 
L 238.836058 108.388168 
L 238.917151 108.259535 
L 239.130019 108.161169 
L 239.221249 108.115769 
L 239.606439 108.009837 
L 239.707805 107.972004 
L 239.93081 107.866071 
L 240.032175 107.752572 
L 240.194361 107.654205 
L 240.295727 107.563406 
L 240.599824 107.457473 
L 240.680917 107.381807 
L 240.914058 107.275874 
L 241.015424 107.215341 
L 241.299249 107.109409 
L 241.400614 107.011043 
L 241.694575 106.90511 
L 241.795941 106.806744 
L 241.9784 106.700811 
L 242.079766 106.625145 
L 242.33318 106.519212 
L 242.434546 106.405713 
L 242.84001 106.29978 
L 242.931239 106.224114 
L 243.235336 106.133315 
L 243.316429 106.027382 
L 243.539434 105.921449 
L 243.620527 105.883616 
L 243.944897 105.78525 
L 244.046263 105.679317 
L 244.147629 105.573385 
L 244.248995 105.497719 
L 244.330088 105.406919 
L 244.431453 105.31612 
L 244.634185 105.210187 
L 244.735551 105.142087 
L 244.836917 105.051288 
L 244.938283 104.968055 
L 245.293063 104.862122 
L 245.394429 104.786456 
L 245.68839 104.695657 
L 245.789756 104.650257 
L 246.04317 104.544324 
L 246.10399 104.461091 
L 246.326995 104.362725 
L 246.418224 104.324892 
L 246.681775 104.21896 
L 246.773005 104.188693 
L 246.93519 104.08276 
L 247.026419 103.999528 
L 247.249424 103.893595 
L 247.32038 103.840629 
L 247.512975 103.734696 
L 247.614341 103.65903 
L 247.7968 103.575797 
L 247.898165 103.424464 
L 248.242809 103.318532 
L 248.334039 103.242866 
L 248.587453 103.144499 
L 248.628 103.083966 
L 248.871278 102.993167 
L 248.942234 102.917501 
L 249.175375 102.826701 
L 249.256468 102.728335 
L 249.408517 102.622403 
L 249.499746 102.554303 
L 249.651795 102.463504 
L 249.702478 102.410537 
L 249.966029 102.304605 
L 250.067395 102.228938 
L 250.22958 102.123006 
L 250.330946 102.077606 
L 250.553951 101.971673 
L 250.655317 101.903574 
L 250.858048 101.797641 
L 250.949278 101.744675 
L 251.141873 101.638742 
L 251.243239 101.563076 
L 251.405424 101.46471 
L 251.496653 101.41931 
L 251.729795 101.313377 
L 251.800751 101.207445 
L 251.973073 101.101512 
L 252.023756 101.063679 
L 252.256897 100.957746 
L 252.327853 100.912346 
L 252.672497 100.806414 
L 252.75359 100.776147 
L 252.966458 100.670214 
L 253.037414 100.586982 
L 253.057687 100.586982 
L 253.219873 100.481049 
L 253.311102 100.375116 
L 253.483424 100.269184 
L 253.58479 100.140551 
L 253.736838 100.034618 
L 253.838204 99.974085 
L 254.081482 99.868153 
L 254.182848 99.747087 
L 254.426126 99.648721 
L 254.527492 99.550355 
L 254.669404 99.451988 
L 254.77077 99.376322 
L 255.074868 99.27039 
L 255.15596 99.20229 
L 255.338419 99.149324 
L 255.429648 98.997991 
L 255.63238 98.892059 
L 255.713473 98.846659 
L 255.733746 98.846659 
L 256.250712 98.559127 
L 256.473716 98.460761 
L 256.575082 98.377528 
L 256.767677 98.271596 
L 256.858907 98.195929 
L 257.031229 98.089997 
L 257.122458 98.044597 
L 257.497511 97.938664 
L 257.588741 97.862998 
L 257.852292 97.757065 
L 257.913111 97.711666 
L 258.105707 97.605733 
L 258.15639 97.575467 
L 258.409804 97.484667 
L 258.51117 97.401434 
L 258.744311 97.303068 
L 258.845677 97.219835 
L 259.048409 97.113903 
L 259.139638 97.038236 
L 259.362643 96.947437 
L 259.464009 96.849071 
L 259.676877 96.743138 
L 259.778243 96.644772 
L 260.031658 96.538839 
L 260.133024 96.47074 
L 260.254663 96.364807 
L 260.345892 96.274008 
L 260.670263 96.168075 
L 260.771628 96.115109 
L 261.136546 96.009176 
L 261.227775 95.93351 
L 261.471053 95.84271 
L 261.562282 95.736778 
L 261.754877 95.638412 
L 261.815697 95.585445 
L 262.25157 95.487079 
L 262.342799 95.403846 
L 262.596214 95.30548 
L 262.69758 95.260081 
L 263.032087 95.154148 
L 263.123316 95.101182 
L 263.336184 95.017949 
L 263.417277 94.964982 
L 263.579463 94.866616 
L 263.680828 94.775817 
L 263.873423 94.669884 
L 263.91397 94.571518 
L 264.278887 94.465585 
L 264.380253 94.442886 
L 264.643804 94.336953 
L 264.704623 94.291553 
L 264.907355 94.18562 
L 265.008721 94.109954 
L 265.221589 94.019155 
L 265.322955 93.898089 
L 265.495277 93.792156 
L 265.57637 93.701357 
L 265.718282 93.610557 
L 265.819648 93.557591 
L 266.103472 93.451658 
L 266.184565 93.406258 
L 266.539345 93.300326 
L 266.640711 93.254926 
L 266.934672 93.148993 
L 267.005628 93.103594 
L 267.198223 92.997661 
L 267.259043 92.937128 
L 267.471911 92.853895 
L 267.56314 92.770662 
L 267.938194 92.694996 
L 268.029423 92.604197 
L 268.313248 92.505831 
L 268.374067 92.467997 
L 268.759257 92.362065 
L 268.84035 92.331798 
L 269.053218 92.225866 
L 269.144448 92.157766 
L 269.407999 92.051833 
L 269.499228 91.968601 
L 269.752643 91.862668 
L 269.854009 91.771868 
L 270.006057 91.665936 
L 270.08715 91.612969 
L 270.330428 91.514603 
L 270.431794 91.416237 
L 270.675072 91.317871 
L 270.776438 91.227072 
L 270.97917 91.128706 
L 270.97917 91.121139 
L 271.070399 91.060606 
L 271.273131 90.954673 
L 271.374496 90.909274 
L 271.546818 90.810908 
L 271.648184 90.697408 
L 272.002965 90.599042 
L 272.094194 90.538509 
L 272.307062 90.440143 
L 272.327335 90.417443 
L 272.601023 90.311511 
L 272.702389 90.213145 
L 273.036896 90.107212 
L 273.107852 90.054245 
L 273.432223 89.948313 
L 273.533589 89.88778 
L 273.705911 89.781847 
L 273.76673 89.736447 
L 274.070828 89.638081 
L 274.162057 89.585115 
L 274.415472 89.479182 
L 274.506701 89.403516 
L 274.709433 89.312717 
L 274.790526 89.25975 
L 274.932438 89.153818 
L 275.023667 89.085718 
L 275.297355 89.002485 
L 275.398721 88.926819 
L 275.662272 88.820886 
L 275.753501 88.760353 
L 275.925823 88.67712 
L 276.017052 88.593888 
L 276.371833 88.495522 
L 276.473199 88.412289 
L 276.726613 88.306356 
L 276.807706 88.170157 
L 277.050984 88.079357 
L 277.142213 87.965858 
L 277.476721 87.859925 
L 277.56795 87.799392 
L 277.811228 87.69346 
L 277.912594 87.60266 
L 278.297784 87.496728 
L 278.378877 87.474028 
L 278.551199 87.375662 
L 278.652564 87.315129 
L 278.835023 87.239463 
L 278.936389 87.15623 
L 279.16953 87.050297 
L 279.270896 87.035164 
L 279.483764 86.944364 
L 279.544584 86.853565 
L 279.818272 86.747632 
L 279.899364 86.709799 
L 280.152779 86.634133 
L 280.254145 86.558467 
L 280.426467 86.475234 
L 280.517696 86.376868 
L 280.720428 86.278502 
L 280.821794 86.225535 
L 281.095481 86.119603 
L 281.146164 86.074203 
L 281.318486 85.983403 
L 281.399579 85.938004 
L 281.896272 85.832071 
L 281.967228 85.763971 
L 282.169959 85.665605 
L 282.251052 85.589939 
L 282.484194 85.491573 
L 282.565286 85.43104 
L 282.889657 85.325107 
L 282.991023 85.287274 
L 283.335667 85.181342 
L 283.437033 85.082976 
L 283.74113 84.977043 
L 283.791813 84.93921 
L 284.15673 84.833277 
L 284.227686 84.810577 
L 284.521647 84.704645 
L 284.623013 84.613845 
L 284.856155 84.523046 
L 284.937247 84.477646 
L 285.423803 84.371713 
L 285.525169 84.296047 
L 285.808993 84.197681 
L 285.839403 84.174981 
L 286.113091 84.069048 
L 286.184047 84.000949 
L 286.599647 83.902583 
L 286.690876 83.857183 
L 286.984837 83.758817 
L 287.076067 83.713417 
L 287.288935 83.622618 
L 287.319345 83.577218 
L 287.653852 83.471285 
L 287.755218 83.395619 
L 288.008632 83.289686 
L 288.089725 83.221587 
L 288.363413 83.115654 
L 288.454642 83.017288 
L 288.789149 82.911355 
L 288.890515 82.873522 
L 289.133793 82.76759 
L 289.164203 82.737323 
L 289.55953 82.638957 
L 289.660896 82.593557 
L 290.056223 82.487625 
L 290.117042 82.434658 
L 290.441413 82.336292 
L 290.542779 82.275759 
L 290.725237 82.169827 
L 290.826603 82.056327 
L 291.019198 81.957961 
L 291.110427 81.882295 
L 291.343569 81.776362 
L 291.404388 81.700696 
L 291.708486 81.594763 
L 291.789579 81.503964 
L 291.951764 81.398031 
L 291.982174 81.360198 
L 292.306545 81.254265 
L 292.397774 81.171033 
L 292.691735 81.0651 
L 292.752554 80.989434 
L 292.975559 80.891068 
L 293.066788 80.762435 
L 293.472252 80.656502 
L 293.573618 80.565703 
L 293.806759 80.45977 
L 293.908125 80.399237 
L 294.191949 80.293305 
L 294.273042 80.240338 
L 294.57714 80.134406 
L 294.668369 80.119272 
L 295.083969 80.01334 
L 295.185335 79.94524 
L 295.286701 79.839307 
L 295.37793 79.786341 
L 295.600935 79.687975 
L 295.7023 79.604742 
L 295.986125 79.498809 
L 296.087491 79.377744 
L 296.401725 79.271811 
L 296.503091 79.233978 
L 296.736232 79.128045 
L 296.817325 79.075079 
L 297.020057 78.969146 
L 297.121422 78.93888 
L 297.3647 78.832947 
L 297.45593 78.787547 
L 297.699208 78.681614 
L 297.800574 78.583248 
L 298.084398 78.484882 
L 298.185764 78.394083 
L 298.530408 78.28815 
L 298.631774 78.250317 
L 298.986554 78.144384 
L 299.08792 78.106551 
L 299.331198 78.008185 
L 299.422427 77.902252 
L 299.868437 77.79632 
L 299.959666 77.766053 
L 300.243491 77.660121 
L 300.344856 77.607154 
L 300.790866 77.501222 
L 300.882095 77.440689 
L 301.145647 77.334756 
L 301.247013 77.28179 
L 301.378788 77.206123 
L 301.449744 77.160724 
L 301.824798 77.054791 
L 301.926164 77.009391 
L 302.149169 76.911025 
L 302.209988 76.842926 
L 302.574905 76.736993 
L 302.605315 76.714293 
L 302.919549 76.60836 
L 303.020915 76.532694 
L 303.264193 76.441895 
L 303.355422 76.343529 
L 303.801432 76.237596 
L 303.902798 76.18463 
L 304.217032 76.086263 
L 304.298125 76.033297 
L 304.713725 75.927364 
L 304.804954 75.881965 
L 305.098915 75.776032 
L 305.190144 75.677666 
L 305.382739 75.571733 
L 305.473968 75.5339 
L 305.859159 75.427967 
L 305.889568 75.375001 
L 306.295032 75.269068 
L 306.396398 75.208535 
L 306.730905 75.125303 
L 306.801861 75.049636 
L 307.116095 74.943704 
L 307.217461 74.890737 
L 307.491149 74.784805 
L 307.572242 74.754538 
L 307.997978 74.648606 
L 308.079071 74.557806 
L 308.342622 74.451873 
L 308.443988 74.406474 
L 308.707539 74.308108 
L 308.778495 74.255141 
L 309.285324 74.149209 
L 309.376554 74.103809 
L 309.660378 73.997876 
L 309.761744 73.94491 
L 309.944202 73.838977 
L 310.035432 73.778444 
L 310.2483 73.672511 
L 310.329393 73.559012 
L 310.582807 73.468213 
L 310.684173 73.400113 
L 310.876768 73.29418 
L 310.967998 73.233647 
L 311.312641 73.127715 
L 311.414007 73.067182 
L 311.647149 72.983949 
L 311.718105 72.923416 
L 312.052612 72.817483 
L 312.153978 72.772084 
L 312.407393 72.666151 
L 312.427666 72.651018 
L 312.863539 72.545085 
L 312.944632 72.507252 
L 313.198046 72.401319 
L 313.299412 72.33322 
L 313.502144 72.227287 
L 313.552827 72.181887 
L 313.745422 72.083521 
L 313.846788 71.985155 
L 314.262388 71.879222 
L 314.353617 71.818689 
L 314.677988 71.712757 
L 314.779354 71.606824 
L 315.113861 71.500891 
L 315.215227 71.463058 
L 315.539597 71.357125 
L 315.59028 71.289026 
L 315.904514 71.19066 
L 315.975471 71.137693 
L 316.370797 71.031761 
L 316.462027 70.986361 
L 316.755988 70.880428 
L 316.857353 70.842595 
L 317.100631 70.736663 
L 317.171588 70.706396 
L 317.435139 70.600463 
L 317.526368 70.509664 
L 317.830466 70.403731 
L 317.931831 70.358332 
L 318.17511 70.252399 
L 318.276475 70.169166 
L 318.550163 70.063233 
L 318.641392 70.010267 
L 318.844124 69.904334 
L 318.925217 69.881634 
L 319.148222 69.775702 
L 319.249588 69.700036 
L 319.452319 69.601669 
L 319.553685 69.53357 
L 320.040241 69.44277 
L 320.13147 69.329271 
L 320.455841 69.223338 
L 320.557207 69.140106 
L 320.891714 69.04174 
L 320.952534 68.988773 
L 321.226222 68.890407 
L 321.327587 68.860141 
L 321.560729 68.754208 
L 321.631685 68.723941 
L 321.935783 68.625575 
L 322.037148 68.549909 
L 322.442612 68.443976 
L 322.503431 68.41371 
L 322.919031 68.307777 
L 322.989987 68.269944 
L 323.233265 68.164012 
L 323.314358 68.103479 
L 323.557636 68.005112 
L 323.659002 67.952146 
L 323.983373 67.846213 
L 324.074602 67.793247 
L 324.368563 67.687314 
L 324.469929 67.657048 
L 324.7943 67.551115 
L 324.844982 67.505716 
L 325.169353 67.407349 
L 325.270719 67.369516 
L 325.493724 67.278717 
L 325.544407 67.225751 
L 326.051236 67.119818 
L 326.081646 67.089551 
L 326.436426 66.983619 
L 326.537792 66.923086 
L 326.75066 66.82472 
L 326.84189 66.771753 
L 327.044621 66.665821 
L 327.135851 66.635554 
L 327.450085 66.529621 
L 327.551451 66.423689 
L 327.744046 66.325323 
L 327.825138 66.26479 
L 328.179919 66.158857 
L 328.281285 66.113457 
L 328.50429 66.007525 
L 328.595519 65.924292 
L 328.980709 65.818359 
L 329.082075 65.735126 
L 329.376036 65.629194 
L 329.426719 65.606494 
L 329.72068 65.500561 
L 329.811909 65.440028 
L 330.055187 65.334095 
L 330.13628 65.311395 
L 330.511333 65.205463 
L 330.58229 65.175196 
L 330.947207 65.069264 
L 331.038436 65.031431 
L 331.595948 64.948198 
L 331.666904 64.880098 
L 332.041958 64.781732 
L 332.123051 64.751466 
L 332.366329 64.645533 
L 332.437285 64.615266 
L 332.812338 64.509334 
L 332.842748 64.479067 
L 333.410397 64.373134 
L 333.481353 64.342868 
L 333.84627 64.236935 
L 333.907089 64.214235 
L 334.119958 64.108303 
L 334.211187 64.055336 
L 334.413919 63.949404 
L 334.515285 63.919137 
L 334.697743 63.828338 
L 334.728153 63.790505 
L 335.164026 63.692139 
L 335.265392 63.654306 
L 335.498533 63.555939 
L 335.569489 63.51054 
L 335.822904 63.404607 
L 335.914133 63.381907 
L 336.177685 63.291108 
L 336.27905 63.192742 
L 336.633831 63.094376 
L 336.735197 63.011143 
L 337.059567 62.90521 
L 337.160933 62.85981 
L 337.647489 62.753878 
L 337.688036 62.685778 
L 338.022543 62.579845 
L 338.123909 62.564712 
L 338.458416 62.458779 
L 338.498962 62.443646 
L 339.157841 62.337713 
L 339.228797 62.29988 
L 339.512621 62.193948 
L 339.593714 62.140981 
L 340.120816 62.035049 
L 340.181636 61.974516 
L 340.546553 61.87615 
L 340.637782 61.823183 
L 341.012836 61.717251 
L 341.073655 61.686984 
L 341.550075 61.588618 
L 341.600758 61.558352 
L 341.996084 61.452419 
L 342.087314 61.391886 
L 342.553597 61.285953 
L 342.654962 61.255687 
L 342.908377 61.149754 
L 343.009743 61.058955 
L 343.425343 60.953022 
L 343.465889 60.922755 
L 343.861216 60.816823 
L 343.962582 60.763856 
L 344.17545 60.657924 
L 344.226133 60.604957 
L 344.722826 60.499025 
L 344.783645 60.461192 
L 345.016787 60.370392 
L 345.057333 60.324992 
L 345.584435 60.21906 
L 345.675665 60.158527 
L 346.010172 60.052594 
L 346.101401 60.037461 
L 346.608231 59.931528 
L 346.679187 59.886128 
L 346.963011 59.780196 
L 347.05424 59.757496 
L 347.56107 59.651563 
L 347.601616 59.63643 
L 348.037489 59.530497 
L 348.138855 59.485097 
L 348.524045 59.379165 
L 348.615274 59.348898 
L 348.939645 59.242966 
L 349.041011 59.227832 
L 349.497157 59.1219 
L 349.57825 59.091633 
L 349.96344 58.9857 
L 350.02426 58.940301 
L 350.612182 58.834368 
L 350.713547 58.781402 
L 351.281196 58.675469 
L 351.342016 58.630069 
L 352.081986 58.524137 
L 352.163079 58.49387 
L 352.639499 58.387937 
L 352.639499 58.372804 
L 353.085508 58.266872 
L 353.146328 58.229038 
L 353.521382 58.130672 
L 353.602474 58.100406 
L 354.099167 57.994473 
L 354.200533 57.941507 
L 354.697225 57.843141 
L 354.798591 57.805308 
L 355.163508 57.706942 
L 355.214191 57.669108 
L 355.650064 57.563176 
L 355.72102 57.525343 
L 356.511674 57.41941 
L 356.602903 57.389144 
L 357.05905 57.298344 
L 357.05905 57.275644 
L 357.596289 57.169711 
L 357.616562 57.139445 
L 358.457898 57.048646 
L 358.457898 57.025946 
L 359.10664 56.92758 
L 359.187733 56.844347 
L 359.704698 56.738414 
L 359.775654 56.693014 
L 360.241937 56.587082 
L 360.32303 56.564382 
L 360.606854 56.458449 
L 360.677811 56.428183 
L 361.438054 56.32225 
L 361.488737 56.307117 
L 362.522669 56.201184 
L 362.603762 56.148218 
L 363.211957 56.042285 
L 363.211957 56.034718 
L 363.992474 55.928786 
L 364.09384 55.913652 
L 364.935176 55.80772 
L 365.026406 55.777453 
L 365.66501 55.671521 
L 365.735966 55.648821 
L 366.790171 55.542888 
L 366.820581 55.527755 
L 367.74301 55.421822 
L 367.844376 55.391556 
L 368.391752 55.285623 
L 368.391752 55.278056 
L 369.070903 55.172124 
L 369.172269 55.141857 
L 370.044015 55.035924 
L 370.135244 55.013225 
L 370.946171 54.914859 
L 370.986718 54.884592 
L 371.969966 54.778659 
L 372.020649 54.755959 
L 372.831576 54.657593 
L 372.892396 54.627327 
L 373.693186 54.521394 
L 373.703322 54.506261 
L 374.463566 54.400328 
L 374.514249 54.385195 
L 375.477225 54.279262 
L 375.477225 54.271696 
L 377.129488 54.165763 
L 377.200444 54.135497 
L 377.960688 54.029564 
L 377.960688 54.021997 
L 379.704181 53.916065 
L 379.714317 53.893365 
L 381.995049 53.787432 
L 382.096415 53.772299 
L 385.796268 53.666366 
L 385.806405 53.651233 
L 398.487273 53.568 
L 398.487273 53.568 
" style="fill:none;stroke:#008080;stroke-linecap:square;stroke-width:1.5;"/>
   </g>
   <g id="patch_3">
    <path d="M 57.6 307.584 
L 57.6 41.472 
" style="fill:none;stroke:#000000;stroke-linecap:square;stroke-linejoin:miter;stroke-width:0.8;"/>
   </g>
   <g id="patch_4">
    <path d="M 414.72 307.584 
L 414.72 41.472 
" style="fill:none;stroke:#000000;stroke-linecap:square;stroke-linejoin:miter;stroke-width:0.8;"/>
   </g>
   <g id="patch_5">
    <path d="M 57.6 307.584 
L 414.72 307.584 
" style="fill:none;stroke:#000000;stroke-linecap:square;stroke-linejoin:miter;stroke-width:0.8;"/>
   </g>
   <g id="patch_6">
    <path d="M 57.6 41.472 
L 414.72 41.472 
" style="fill:none;stroke:#000000;stroke-linecap:square;stroke-linejoin:miter;stroke-width:0.8;"/>
   </g>
  </g>
 </g>
 <defs>
  <clipPath id="pb64052e356">
   <rect height="266.112" width="357.12" x="57.6" y="41.472"/>
  </clipPath>
 </defs>
</svg>
